# xmcd
#
# Track frame offsets:
#	150
#	22157
#	41307
#	63612
#	86497
#	107192
#	132947
#	155660
#
# Disc length: 2370 seconds
#
# Revision: 1
# Processed by: cddbd v1.5PL3 Copyright (c) Steve Scherf et al.
# Submitted via: dBpowerAMP V4.0
#
DISCID=69094008
DTITLE=Ray,Goodman&Brown~HarryRay,AlGoodman,BillyBrown - MoodForLovin';EMIManhattanCDP7-90037
DYEAR=1988
DGENRE=Soul
TTITLE0=WhereDidYouGetThatBody,Baby(1988,Ray,Goodman&Brown~HarryRay,AlGoodman,BillyBrown)
TTITLE1=MoodForLovin'(1988,Ray,Goodman&Brown~HarryRay,AlGoodman,BillyBrown)
TTITLE2=WhereAreYouNow(1988,Ray,Goodman&Brown~HarryRay,AlGoodman,BillyBrown)
TTITLE3=SayIt(1988,Ray,Goodman&Brown~HarryRay,AlGoodman,BillyBrown)
TTITLE4=Electrified(1988,Ray,Goodman&Brown~HarryRay,AlGoodman,BillyBrown)
TTITLE5=NextTimeI'llKnow(1988,Ray,Goodman&Brown~HarryRay,AlGoodman,BillyBrown)
TTITLE6=NeverStopLovin'You(1988,Ray,Goodman&Brown~HarryRay,AlGoodman,BillyBrown)
TTITLE7=Don'tMakeMeWait(1988,Ray,Goodman&Brown~HarryRay,AlGoodman,BillyBrown)
EXTD=more info
EXTT0=
EXTT1=
EXTT2=
EXTT3=
EXTT4=
EXTT5=
EXTT6=
EXTT7=
PLAYORDER=
